<?xml version="1.0" encoding="UTF-8" standalone="no"?>
<svg width="120px" height="120px" viewBox="0 0 120 120" version="1.1" xmlns="http://www.w3.org/2000/svg" xmlns:xlink="http://www.w3.org/1999/xlink">
    <!-- Generator: Sketch 42 (36781) - http://www.bohemiancoding.com/sketch -->
    <title>Artboard</title>
    <desc>Created with Sketch.</desc>
    <defs>
        <linearGradient x1="47.7271031%" y1="44.4088946%" x2="121.33476%" y2="221.551279%" id="linearGradient-1">
            <stop stop-color="#F47E20" offset="0%"></stop>
            <stop stop-color="#F68F1C" offset="32.5%"></stop>
            <stop stop-color="#FDBC11" offset="96.76%"></stop>
            <stop stop-color="#FDBE10" offset="100%"></stop>
        </linearGradient>
        <linearGradient x1="57.9716068%" y1="45.233458%" x2="154.676841%" y2="-13.1460574%" id="linearGradient-2">
            <stop stop-color="#F47E20" offset="0%"></stop>
            <stop stop-color="#F68F1C" offset="32.5%"></stop>
            <stop stop-color="#FDBC11" offset="96.76%"></stop>
            <stop stop-color="#FDBE10" offset="100%"></stop>
        </linearGradient>
        <linearGradient x1="26.4410123%" y1="64.0479869%" x2="126.404985%" y2="1.8753097%" id="linearGradient-3">
            <stop stop-color="#F47E20" offset="0%"></stop>
            <stop stop-color="#F68F1C" offset="32.5%"></stop>
            <stop stop-color="#FDBC11" offset="96.76%"></stop>
            <stop stop-color="#FDBE10" offset="100%"></stop>
        </linearGradient>
        <linearGradient x1="-1.52836236%" y1="82.8220633%" x2="100.657432%" y2="16.7840826%" id="linearGradient-4">
            <stop stop-color="#F47E20" offset="0%"></stop>
            <stop stop-color="#F68F1C" offset="32.5%"></stop>
            <stop stop-color="#FDBC11" offset="96.76%"></stop>
            <stop stop-color="#FDBE10" offset="100%"></stop>
        </linearGradient>
        <linearGradient x1="37.9240161%" y1="58.1903942%" x2="128.714013%" y2="-3.41230579%" id="linearGradient-5">
            <stop stop-color="#F47E20" offset="0%"></stop>
            <stop stop-color="#F68F1C" offset="32.5%"></stop>
            <stop stop-color="#FDBC11" offset="96.76%"></stop>
            <stop stop-color="#FDBE10" offset="100%"></stop>
        </linearGradient>
        <linearGradient x1="-130.210015%" y1="172.880255%" x2="101.306348%" y2="15.0989304%" id="linearGradient-6">
            <stop stop-color="#B4E3F9" offset="0%"></stop>
            <stop stop-color="#273674" offset="100%"></stop>
        </linearGradient>
        <linearGradient x1="-45.3370847%" y1="116.94953%" x2="53.0102946%" y2="48.2848943%" id="linearGradient-7">
            <stop stop-color="#B4E3F9" offset="0%"></stop>
            <stop stop-color="#273674" offset="100%"></stop>
        </linearGradient>
        <linearGradient x1="0.0678980718%" y1="83.8027227%" x2="99.9154679%" y2="14.3607451%" id="linearGradient-8">
            <stop stop-color="#B4E3F9" offset="0%"></stop>
            <stop stop-color="#273674" offset="100%"></stop>
        </linearGradient>
        <linearGradient x1="24.3618242%" y1="69.7134755%" x2="115.041776%" y2="0.61776641%" id="linearGradient-9">
            <stop stop-color="#F47E20" offset="0%"></stop>
            <stop stop-color="#F68F1C" offset="32.5%"></stop>
            <stop stop-color="#FDBC11" offset="96.76%"></stop>
            <stop stop-color="#FDBE10" offset="100%"></stop>
        </linearGradient>
        <linearGradient x1="-45.0535047%" y1="121.357597%" x2="49.4596906%" y2="50.1910948%" id="linearGradient-10">
            <stop stop-color="#B4E3F9" offset="0%"></stop>
            <stop stop-color="#273674" offset="100%"></stop>
        </linearGradient>
        <linearGradient x1="-36.7483582%" y1="115.181899%" x2="60.0567567%" y2="42.1968147%" id="linearGradient-11">
            <stop stop-color="#B4E3F9" offset="0%"></stop>
            <stop stop-color="#273674" offset="100%"></stop>
        </linearGradient>
        <linearGradient x1="0.0535762744%" y1="87.8799538%" x2="99.3966433%" y2="12.7574522%" id="linearGradient-12">
            <stop stop-color="#B4E3F9" offset="0%"></stop>
            <stop stop-color="#273674" offset="100%"></stop>
        </linearGradient>
    </defs>
    <g id="Page-1" stroke="none" stroke-width="1" fill="none" fill-rule="evenodd">
        <g id="Artboard" fill-rule="nonzero">
            <g id="Lattice-Logo-Only" transform="translate(11.000000, 0.000000)">
                <g id="Layer_1">
                    <g id="Group">
                        <path d="M90.3,86.6 C83.6,81.5 73.3,83.3 66.9,90.5 C60.4,97.9 59.7,108.9 66,115.2 C72.7,122 84.3,120.6 91.4,112 C98.3,103.5 97.5,92.1 90.3,86.6 Z" id="Shape" fill="url(#linearGradient-1)"></path>
                        <path d="M52.5,67.2 C48.9,64.2 42.5,65.6 38.1,70.2 C33.6,74.9 32.6,81.4 36,84.8 C39.5,88.4 46.4,87.1 51.1,82 C55.7,76.9 56.3,70.3 52.5,67.2 Z" id="Shape" fill="url(#linearGradient-2)"></path>
                        <path d="M24.7,52.3 C22.8,50.7 19,51.6 16.2,54.4 C13.3,57.2 12.4,61 14.2,62.8 C16,64.7 20,63.8 23,60.8 C25.9,57.8 26.7,54 24.7,52.3 Z" id="Shape" fill="url(#linearGradient-3)"></path>
                        <path d="M9.1,40.8 C7.9,39.7 5.2,40.4 3,42.5 C0.8,44.6 -0.1,47.2 1.1,48.3 C2.3,49.5 5.1,48.7 7.3,46.6 C9.5,44.5 10.3,41.9 9.1,40.8 Z" id="Shape" fill="url(#linearGradient-4)"></path>
                        <path d="M91.6,45.1 C85.7,41.8 76.8,43.9 71.3,49.8 C65.7,55.8 65.3,63.9 70.8,68 C76.6,72.3 86.6,70.4 92.6,63.6 C98.5,56.9 97.8,48.6 91.6,45.1 Z" id="Shape" fill="url(#linearGradient-5)"></path>
                        <path d="M58.2,33.3 C54.9,31.3 49.2,32.8 45.4,36.7 C41.5,40.6 40.7,45.6 43.9,47.9 C47.1,50.3 53.2,48.8 57.3,44.6 C61.2,40.5 61.6,35.4 58.2,33.3 Z" id="Shape" fill="url(#linearGradient-6)"></path>
                        <path d="M33.1,26.2 C31.3,25.1 27.9,26.1 25.4,28.4 C22.9,30.8 22.1,33.8 23.9,35 C25.6,36.3 29.2,35.3 31.8,32.8 C34.4,30.4 34.9,27.4 33.1,26.2 Z" id="Shape" fill="url(#linearGradient-7)"></path>
                        <path d="M17.7,21.5 C16.5,20.7 14,21.5 12.1,23.3 C10.1,25.1 9.4,27.2 10.6,28.1 C11.7,29 14.3,28.2 16.3,26.3 C18.3,24.4 18.9,22.3 17.7,21.5 Z" id="Shape" fill="url(#linearGradient-8)"></path>
                        <path d="M92.6,13.6 C87.4,11.4 79.5,13.7 74.7,18.6 C69.8,23.6 69.5,29.8 74.5,32.5 C79.7,35.3 88.4,33.2 93.6,27.6 C98.7,22.2 98.1,15.9 92.6,13.6 Z" id="Shape" fill="url(#linearGradient-9)"></path>
                        <path d="M62.6,6.7 C59.6,5.4 54.5,6.9 51.1,10.2 C47.7,13.5 47.1,17.5 50,19.1 C53,20.7 58.4,19.2 62,15.6 C65.5,12.1 65.8,8.1 62.6,6.7 Z" id="Shape" fill="url(#linearGradient-10)"></path>
                        <path d="M40.9,3.3 C39.2,2.5 36.1,3.5 33.8,5.6 C31.5,7.7 31,10.1 32.6,11 C34.2,11.9 37.5,10.9 39.8,8.7 C42.2,6.5 42.6,4.1 40.9,3.3 Z" id="Shape" fill="url(#linearGradient-11)"></path>
                        <path d="M26.9,0.4 C25.8,-0.2 23.4,0.6 21.7,2.2 C19.9,3.8 19.4,5.5 20.5,6.1 C21.6,6.7 24,5.9 25.8,4.3 C27.5,2.7 28,1 26.9,0.4 Z" id="Shape" fill="url(#linearGradient-12)"></path>
                    </g>
                </g>
            </g>
        </g>
    </g>
</svg>